HIERARCHY
ROOT Hips
{
	OFFSET 0.000000 0.000000 0.000000
	CHANNELS 6 Xposition Yposition Zposition Zrotation Yrotation Xrotation 
	JOINT LHipJoint
	{
		OFFSET 0.000000 0.000000 0.000000
		CHANNELS 3 Zrotation Yrotation Xrotation
		JOINT LeftUpLeg
		{
			OFFSET 1.363060 -1.794630 0.839290
			CHANNELS 3 Zrotation Yrotation Xrotation
			JOINT LeftLeg
			{
				OFFSET 2.448110 -6.726130 0.000000
				CHANNELS 3 Zrotation Yrotation Xrotation
				JOINT LeftFoot
				{
					OFFSET 2.562200 -7.039590 0.000000
					CHANNELS 3 Zrotation Yrotation Xrotation
					JOINT LeftToeBase
					{
						OFFSET 0.157640 -0.433110 2.322550
						CHANNELS 3 Zrotation Yrotation Xrotation
						End Site
						{
							OFFSET 0.000000 0.000000 0.000000
						}
					}
				}
			}
		}
	}
	JOINT RHipJoint
	{
		OFFSET 0.000000 0.000000 0.000000
		CHANNELS 3 Zrotation Yrotation Xrotation
		JOINT RightUpLeg
		{
			OFFSET -1.305520 -1.794630 0.839290
			CHANNELS 3 Zrotation Yrotation Xrotation
			JOINT RightLeg
			{
				OFFSET -2.542530 -6.985550 0.000000
				CHANNELS 3 Zrotation Yrotation Xrotation
				JOINT RightFoot
				{
					OFFSET -2.568260 -7.056230 0.000000
					CHANNELS 3 Zrotation Yrotation Xrotation
					JOINT RightToeBase
					{
						OFFSET -0.164730 -0.452590 2.363150
						CHANNELS 3 Zrotation Yrotation Xrotation
						End Site
						{
							OFFSET 0.000000 0.000000 0.000000
						}
					}
				}
			}
		}
	}
	JOINT LowerBack
	{
		OFFSET 0.000000 0.000000 0.000000
		CHANNELS 3 Zrotation Yrotation Xrotation
		JOINT Spine
		{
			OFFSET 0.028270 2.035590 -0.193380
			CHANNELS 3 Zrotation Yrotation Xrotation
			JOINT Spine1
			{
				OFFSET 0.056720 2.048850 -0.042750
				CHANNELS 3 Zrotation Yrotation Xrotation
				JOINT Neck
				{
					OFFSET 0.000000 0.000000 0.000000
					CHANNELS 3 Zrotation Yrotation Xrotation
					JOINT Neck1
					{
						OFFSET -0.054170 1.746240 0.172020
						CHANNELS 3 Zrotation Yrotation Xrotation
						JOINT Head
						{
							OFFSET 0.104070 1.761360 -0.123970
							CHANNELS 3 Zrotation Yrotation Xrotation
							End Site
							{
								OFFSET 0.000000 0.000000 0.000000
							}
						}
					}
				}
				JOINT LeftShoulder
				{
					OFFSET 0.000000 0.000000 0.000000
					CHANNELS 3 Zrotation Yrotation Xrotation
					JOINT LeftArm
					{
						OFFSET 3.362410 1.200890 -0.311210
						CHANNELS 3 Zrotation Yrotation Xrotation
						JOINT LeftForeArm
						{
							OFFSET 4.983000 -0.000000 -0.000000
							CHANNELS 3 Zrotation Yrotation Xrotation
							JOINT LeftHand
							{
								OFFSET 3.483560 -0.000000 -0.000000
								CHANNELS 3 Zrotation Yrotation Xrotation
								JOINT LeftFingerBase
								{
									OFFSET 0.000000 0.000000 0.000000
									CHANNELS 3 Zrotation Yrotation Xrotation
									JOINT LeftHandIndex1
									{
										OFFSET 0.715260 -0.000000 -0.000000
										CHANNELS 3 Zrotation Yrotation Xrotation
										End Site
										{
											OFFSET 0.000000 0.000000 0.000000
										}
									}
								}
								JOINT LThumb
								{
									OFFSET 0.000000 0.000000 0.000000
									CHANNELS 3 Zrotation Yrotation Xrotation
									End Site
									{
										OFFSET 0.000000 0.000000 0.000000
									}
								}
							}
						}
					}
				}
				JOINT RightShoulder
				{
					OFFSET 0.000000 0.000000 0.000000
					CHANNELS 3 Zrotation Yrotation Xrotation
					JOINT RightArm
					{
						OFFSET -3.136600 1.374050 -0.404650
						CHANNELS 3 Zrotation Yrotation Xrotation
						JOINT RightForeArm
						{
							OFFSET -5.241900 -0.000000 -0.000000
							CHANNELS 3 Zrotation Yrotation Xrotation
							JOINT RightHand
							{
								OFFSET -3.444170 -0.000000 -0.000000
								CHANNELS 3 Zrotation Yrotation Xrotation
								JOINT RightFingerBase
								{
									OFFSET 0.000000 0.000000 0.000000
									CHANNELS 3 Zrotation Yrotation Xrotation
									JOINT RightHandIndex1
									{
										OFFSET -0.622530 -0.000000 -0.000000
										CHANNELS 3 Zrotation Yrotation Xrotation
										End Site
										{
											OFFSET 0.000000 0.000000 0.000000
										}
									}
								}
								JOINT RThumb
								{
									OFFSET 0.000000 0.000000 0.000000
									CHANNELS 3 Zrotation Yrotation Xrotation
									End Site
									{
										OFFSET 0.000000 0.000000 0.000000
									}
								}
							}
						}
					}
				}
			}
		}
	}
}
MOTION
Frames: 6
Frame Time: 0.008333
5.315278 17.793690 11.929179 1.620785 0.169673 2.244527 -1.466836 6.144845 5.886910 -22.393821 -5.404322 -3.303541 -0.554778 4.229802 19.613906 2.221816 -8.438394 -1.282102 0.136603 2.362775 6.510331 0.743521 -4.062674 2.582157 15.788534 13.295747 -34.244041 -4.561061 -12.433596 39.731636 3.432434 -13.261560 5.041596 -0.041323 1.298847 -3.571609 -3.080127 -1.213795 6.780047 2.796291 -1.693034 3.624199 3.087978 -0.928291 -9.660098 -5.648506 -3.865253 -17.170211 4.805135 -4.227442 14.923259 0.403656 -1.688175 8.227499 -7.085126 2.591703 -1.124933 -75.841468 -3.376056 21.851305 15.673928 -25.869639 -3.722108 -0.344416 -0.800200 -6.560016 30.444249 24.876475 14.494589 -7.125000 0.000000 0.000000 1.303277 59.175088 0.432795 11.179775 -2.173344 -2.657187 75.201222 -3.441048 6.835237 -10.076857 21.663170 -2.250402 1.038417 -0.573128 5.838157 -17.017373 25.407201 -8.077970 7.125000 0.000000 0.000000 7.031266 -3.265077 6.671707
5.311831 17.792418 12.035812 1.757174 0.252791 2.316113 -1.490628 6.171946 5.943432 -22.507887 -5.247548 -2.845957 -0.610516 4.077408 19.231289 2.197703 -8.330005 -1.382150 0.112694 2.163496 5.957811 0.823387 -4.046071 2.526064 15.504022 13.365919 -34.166274 -4.139856 -12.011944 38.032303 3.525223 -13.605597 5.705471 -0.022723 0.827200 -2.274123 -3.235047 -1.247561 6.712929 2.787857 -1.749909 3.622257 3.164278 -0.957346 -9.624265 -5.677077 -3.880371 -17.249992 4.836499 -4.235737 14.947719 0.416716 -1.689431 8.249626 -7.081246 2.587160 -1.123244 -75.766999 -3.535298 22.073114 15.925768 -26.213933 -3.833808 -0.331846 -0.818236 -6.815595 30.334594 25.885051 14.951321 -7.125000 0.000000 0.000000 0.875165 60.269515 0.323762 11.175929 -2.174134 -2.667700 75.185332 -3.627133 6.973443 -10.198126 21.871696 -2.331130 1.019831 -0.499267 5.660915 -16.691393 23.897601 -7.483920 7.125000 0.000000 0.000000 7.134207 -4.911560 6.535307
5.309013 17.789714 12.146374 1.931315 0.328024 2.341574 -1.512886 6.203951 6.004753 -22.669448 -5.115931 -2.296630 -0.664853 3.919340 18.843855 2.175458 -8.238408 -1.500981 0.105690 2.095826 5.770619 0.905664 -4.034599 2.472527 15.183193 13.397306 -34.022216 -3.721443 -11.577536 36.315691 3.615612 -13.949732 6.393835 -0.003405 0.219700 -0.603738 -3.420560 -1.277084 6.664114 2.764298 -1.805701 3.634480 3.245891 -0.984638 -9.591372 -5.722466 -3.895184 -17.279693 4.883380 -4.246645 14.920927 0.436260 -1.693385 8.249344 -7.075351 2.580711 -1.120517 -75.691660 -3.671938 22.250688 16.139400 -26.503415 -3.930904 -0.323601 -0.826929 -7.015444 30.288659 26.400153 15.181668 -7.125000 0.000000 0.000000 0.641541 60.824992 0.246603 11.172249 -2.177306 -2.684475 75.171967 -3.888734 7.167416 -10.374677 22.176201 -2.450764 0.985155 -0.396237 5.369229 -15.975550 21.772664 -6.527566 7.125000 0.000000 0.000000 7.446345 -7.265700 6.496445
5.304197 17.779443 12.251177 2.021849 0.407402 2.448976 -1.536987 6.237707 6.066953 -22.724726 -5.032110 -1.771811 -0.742715 3.723835 18.337649 2.129663 -8.086889 -1.436918 0.101070 2.049478 5.642477 0.993536 -4.023227 2.414304 14.931727 13.497603 -33.914701 -3.327617 -11.129154 34.625612 3.714260 -14.332369 7.044765 -0.005218 0.380579 -1.045787 -3.579367 -1.319320 6.544494 2.812725 -1.871327 3.625213 3.354121 -1.017064 -9.523981 -5.771427 -3.884864 -17.224640 4.894132 -4.227261 14.829227 0.448983 -1.689564 8.215148 -7.075787 2.568395 -1.117350 -75.665122 -3.855082 22.309278 16.207128 -26.590570 -3.963710 -0.324269 -0.818143 -7.037423 30.299308 25.970844 14.970945 -7.125000 0.000000 0.000000 0.797855 60.352228 0.295893 11.173280 -2.183153 -2.691374 75.130558 -3.939968 7.119774 -10.430889 22.281329 -2.511518 0.946607 -0.324336 5.476258 -15.299881 20.078458 -5.775459 7.125000 0.000000 0.000000 7.817057 -9.138083 6.526079
5.298925 17.768621 12.354627 2.091061 0.490710 2.577862 -1.561697 6.271670 6.129472 -22.751489 -4.956023 -1.261118 -0.825363 3.520916 17.806980 2.080328 -7.927925 -1.334288 0.096041 1.997229 5.498084 1.082727 -4.011046 2.353243 14.693918 13.622469 -33.826954 -2.940959 -10.676789 32.936457 3.817137 -14.743413 7.728660 -0.012387 0.696625 -1.914555 -3.724639 -1.364671 6.406821 2.873577 -1.938405 3.612575 3.462276 -1.050885 -9.446520 -5.817243 -3.870889 -17.168819 4.899273 -4.203137 14.737102 0.460123 -1.683892 8.180399 -7.077588 2.555549 -1.114385 -75.644596 -4.051997 22.350578 16.248921 -26.641790 -3.985205 -0.326592 -0.805941 -7.033705 30.323144 25.353813 14.672997 -7.125000 0.000000 0.000000 1.031447 59.675100 0.368778 11.175342 -2.188879 -2.694797 75.086488 -3.930283 7.002330 -10.451461 22.326442 -2.553014 0.910381 -0.263686 5.692895 -14.695991 18.574419 -5.116678 7.125000 0.000000 0.000000 8.160062 -10.797156 6.555572
5.292558 17.768339 12.454426 2.086275 0.613621 2.786607 -1.589761 6.304210 6.193954 -22.666542 -4.866538 -0.870583 -0.913684 3.311521 17.244010 2.040990 -7.813872 -1.170728 0.080395 1.822125 5.014569 1.175543 -3.988514 2.267495 14.467107 13.895790 -33.902167 -2.587303 -10.206815 31.197751 3.953845 -15.420903 8.910812 -0.037862 1.182964 -3.253145 -3.762237 -1.419700 6.206540 2.923985 -2.001004 3.607285 3.508210 -1.090323 -9.322597 -5.815508 -3.869096 -17.298547 4.917484 -4.189536 14.789123 0.467184 -1.672991 8.216832 -7.081887 2.549587 -1.114972 -75.586850 -4.313972 22.449733 16.302486 -26.709700 -4.013353 -0.329064 -0.791274 -7.118333 30.381518 24.564904 14.300364 -7.125000 0.000000 0.000000 1.333136 58.811100 0.445428 11.179461 -2.186946 -2.677537 75.073749 -3.643502 6.568711 -10.303625 22.080462 -2.489381 0.912090 -0.272003 6.361544 -14.896850 18.455661 -5.154185 7.125000 0.000000 0.000000 8.021842 -10.899169 6.425600
